<?xml version="1.0" encoding="UTF-8" standalone="no"?>
<!-- Created with Inkscape (http://www.inkscape.org/) -->

<svg
   xmlns:dc="http://purl.org/dc/elements/1.1/"
   xmlns:cc="http://creativecommons.org/ns#"
   xmlns:rdf="http://www.w3.org/1999/02/22-rdf-syntax-ns#"
   xmlns:svg="http://www.w3.org/2000/svg"
   xmlns="http://www.w3.org/2000/svg"
   xmlns:sodipodi="http://sodipodi.sourceforge.net/DTD/sodipodi-0.dtd"
   xmlns:inkscape="http://www.inkscape.org/namespaces/inkscape"
   width="80.252457mm"
   height="17.31398mm"
   viewBox="0 0 284.3591 61.348748"
   id="svg4367"
   version="1.1"
   inkscape:version="0.91 r13725"
   sodipodi:docname="getBusLogoMaster2.svg">
  <defs
     id="defs4369" />
  <sodipodi:namedview
     id="base"
     pagecolor="#ffffff"
     bordercolor="#666666"
     borderopacity="0"
     inkscape:pageopacity="0.0"
     inkscape:pageshadow="2"
     inkscape:zoom="3.24771"
     inkscape:cx="142.79664"
     inkscape:cy="-10.962661"
     inkscape:document-units="px"
     inkscape:current-layer="layer1"
     showgrid="false"
     fit-margin-top="0"
     fit-margin-left="0"
     fit-margin-right="0"
     fit-margin-bottom="0"
     inkscape:window-width="1631"
     inkscape:window-height="1026"
     inkscape:window-x="1329"
     inkscape:window-y="24"
     inkscape:window-maximized="1" />
  <metadata
     id="metadata4372">
    <rdf:RDF>
      <cc:Work
         rdf:about="">
        <dc:format>image/svg+xml</dc:format>
        <dc:type
           rdf:resource="http://purl.org/dc/dcmitype/StillImage" />
        <dc:title></dc:title>
      </cc:Work>
    </rdf:RDF>
  </metadata>
  <g
     inkscape:label="Layer 1"
     inkscape:groupmode="layer"
     id="layer1"
     transform="translate(-174.34618,-200.05081)">
    <g
       transform="translate(92.213441,76.355203)"
       style="font-style:normal;font-variant:normal;font-weight:500;font-stretch:normal;font-size:73.15000153px;line-height:125%;font-family:BorisBlackBloxx;-inkscape-font-specification:'BorisBlackBloxx, Medium';text-align:start;letter-spacing:0px;word-spacing:0px;writing-mode:lr-tb;text-anchor:start;opacity:1;fill:#2765c2;fill-opacity:1;stroke:#b3b3b3;stroke-width:1px;stroke-linecap:butt;stroke-linejoin:miter;stroke-opacity:1"
       id="flowRoot4160">
      <path
         d="m 102.89529,154.33341 q 0,-7.1687 5.04735,-11.5577 5.2668,-4.389 13.8985,-4.389 2.7797,0 5.48625,0.2926 2.7797,0.2926 5.48625,0.80465 5.5594,1.09725 9.5095,2.26765 1.24355,0.36575 2.12135,-0.36575 0.8778,-0.80465 0.7315,-2.0482 l -1.24355,-10.16785 q -0.0732,-0.5852 -0.5852,-1.09725 -0.4389,-0.5852 -1.0241,-0.7315 -3.8038,-1.1704 -10.02155,-2.12135 -6.21775,-1.0241 -13.97165,-1.0241 -15.9467,0 -25.821952,8.1928 -9.87525,8.3391 -9.87525,22.60335 0,14.55685 9.58265,21.57925 9.582652,6.94925 27.650702,6.94925 7.97335,0 14.7763,-1.0241 6.8761,-1.0241 12.21605,-2.70655 0.65835,-0.21945 1.09725,-0.80465 0.51205,-0.65835 0.51205,-1.3167 l 0,-25.67565 q 0,-0.95095 -0.65835,-1.53615 -0.65835,-0.65835 -1.6093,-0.65835 l -23.408,0 q -0.95095,0 -1.6093,0.65835 -0.65835,0.5852 -0.65835,1.53615 l 0,9.72895 q 0,0.95095 0.65835,1.6093 0.65835,0.65835 1.6093,0.65835 l 7.68075,0 0,3.6575 q -3.43805,1.3167 -10.02155,1.3167 -8.26595,0 -12.94755,-3.9501 -4.60845,-3.9501 -4.60845,-10.6799 z"
         style=""
         id="path4214" />
      <path
         d="m 191.21363,177.22936 -2.70655,-6.8761 q -0.36575,-0.80465 -1.24355,-1.1704 -0.80465,-0.36575 -1.60931,0 -0.2926,0.1463 -1.0241,0.36575 -0.7315,0.21945 -2.0482,0.5852 -2.41395,0.65835 -5.04735,0.65835 -5.33995,0 -7.53445,-2.1945 -0.7315,-0.65835 -1.3167,-1.9019 l 20.84776,0 q 0.8778,0 1.463,-0.65835 0.65835,-0.65835 0.65835,-1.53615 l 0,-3.2186 q 0,-9.6558 -5.2668,-15.58095 -5.48626,-6.1446 -14.33741,-6.1446 -8.85115,0 -14.63,6.07145 -5.77885,5.9983 -5.77885,15.2152 0,10.6799 6.4372,16.6782 6.4372,5.9983 17.19025,5.9983 2.12135,0 4.2427,-0.2926 2.12135,-0.21945 4.0964,-0.65835 1.97505,-0.51205 3.65751,-1.1704 1.7556,-0.65835 3.0723,-1.53615 l 0.8778,-2.6334 z m -22.16446,-23.7006 q 0.95095,-1.97505 2.926,-1.97505 1.463,0 2.41395,1.463 0.95095,1.38985 1.24355,3.9501 l -7.6076,0 q 0.2926,-2.0482 1.0241,-3.43805 z"
         style=""
         id="path4216" />
      <path
         d="m 216.89899,168.30506 0,-15.5078 8.1928,0 q 0.8778,0 1.463,-0.65835 0.65835,-0.65835 0.65835,-1.6093 l 0,-7.82705 q 0,-0.95095 -0.65835,-1.53615 -0.5852,-0.65835 -1.463,-0.65835 l -8.1928,0 0.0731,-11.19195 q 0,-1.0241 -0.7315,-1.68245 -0.7315,-0.7315 -1.7556,-0.51205 l -12.21605,2.12135 q -0.7315,0.0731 -1.3167,0.7315 -0.51205,0.65835 -0.51205,1.463 l 0,9.0706 -5.92515,0 q -0.80465,0 -1.463,0.65835 -0.65835,0.5852 -0.65835,1.53615 l 0,7.82705 q 0,0.95095 0.65835,1.6093 0.65835,0.65835 1.463,0.65835 l 5.92515,0 0,18.65325 q 0,7.09555 3.5112,10.0947 3.58435,2.99915 11.4114,2.99915 1.463,0 2.926,-0.21945 1.463,-0.21945 3.14545,-0.5852 1.53615,-0.36575 2.6334,-0.65835 1.1704,-0.2926 1.9019,-0.65835 0.51205,-0.1463 0.8778,-0.7315 0.36575,-0.65835 0.36575,-1.24355 l 0,-8.70485 q 0,-1.24355 -0.95095,-1.9019 -0.8778,-0.65835 -1.97505,-0.1463 -0.80465,0.36575 -2.26765,0.8778 -1.463,0.51205 -3.29175,0.51205 -0.80465,0 -1.3167,-0.65835 -0.51205,-0.7315 -0.51205,-2.12135 z"
         style=""
         id="path4218" />
      <path
         d="m 261.11874,182.64246 q 8.55855,0 13.8985,-4.31585 5.63255,-4.60845 5.63255,-11.9966 0,-6.65665 -3.6575,-10.89935 -1.97505,-2.26765 -5.77885,-3.8038 3.73065,-1.9019 5.48625,-4.9742 1.7556,-3.0723 1.7556,-7.09555 0,-3.29175 -1.38985,-5.77885 -1.3167,-2.56025 -3.87695,-4.60845 -2.4871,-1.9019 -5.63255,-2.85285 -3.0723,-1.0241 -6.8761,-1.0241 l -29.5526,0 q -0.8778,0 -1.53615,0.65835 -0.65835,0.65835 -0.65835,1.53615 l 0,52.9606 q 0,0.8778 0.65835,1.53615 0.65835,0.65835 1.53615,0.65835 l 29.9915,0 z m -7.38815,-23.9932 q 3.0723,0 4.9742,1.53615 1.9019,1.463 1.9019,4.02325 0,2.41395 -2.0482,3.87695 -1.97505,1.463 -5.04735,1.463 l -5.04735,0 0,-10.89935 5.2668,0 z m -0.7315,-20.26255 q 2.85285,0 4.46215,1.38985 1.68245,1.38985 1.68245,3.29175 0,1.68245 -1.7556,3.0723 -1.68245,1.38985 -4.46215,1.38985 l -4.46215,0 0,-9.14375 4.5353,0 z"
         style=""
         id="path4220" />
      <path
         d="m 327.31606,142.70256 q 0,-0.8778 -0.65835,-1.463 -0.5852,-0.65835 -1.463,-0.65835 l -12.50865,0 q -0.8778,0 -1.53615,0.65835 -0.65835,0.5852 -0.65835,1.463 l 0,25.1636 q -0.7315,0.36575 -1.6093,0.7315 -0.80465,0.2926 -1.7556,0.7315 l 0.0731,0 q -1.1704,0.4389 -2.12135,0.65835 -0.8778,0.1463 -1.463,0.1463 -2.7797,0 -2.7797,-4.8279 l 0,-22.60335 q 0,-0.8778 -0.65835,-1.463 -0.65835,-0.65835 -1.53615,-0.65835 l -12.50865,0 q -0.8778,0 -1.53615,0.65835 -0.65835,0.5852 -0.65835,1.463 l 0,25.82195 q 0,7.315 3.5112,11.19195 3.58435,3.8038 10.6799,3.8038 4.16955,0 7.53445,-1.1704 3.43805,-1.1704 6.7298,-3.29175 l 1.1704,2.3408 q 0.1463,0.51205 0.7315,0.8778 0.65835,0.36575 1.24355,0.36575 l 9.6558,0 q 0.8778,0 1.463,-0.5852 0.65835,-0.65835 0.65835,-1.6093 l 0,-37.7454 z"
         style=""
         id="path4222" />
      <path
         d="m 365.99184,169.98751 q 0,-4.8279 -2.926,-7.9002 -2.926,-3.14545 -8.1928,-5.1205 -4.5353,-1.68245 -6.51035,-2.6334 -1.9019,-1.0241 -1.9019,-2.0482 0,-0.51205 0.65835,-0.8778 0.65835,-0.4389 1.7556,-0.4389 2.926,0 6.1446,1.6093 1.68245,0.80465 2.6334,1.38985 1.0241,0.51205 1.3167,0.65835 1.09725,0.80465 2.1945,0.2926 1.09725,-0.5852 1.09725,-2.0482 l 0,-8.6317 q 0,-0.5852 -0.36575,-1.24355 -0.36575,-0.65835 -0.8778,-0.80465 -1.0241,-0.4389 -2.41395,-0.8778 -1.38985,-0.51205 -3.0723,-0.8778 -1.6093,-0.36575 -3.43805,-0.5852 -1.7556,-0.2926 -3.5112,-0.2926 -3.73065,0 -6.8761,0.8778 -3.14545,0.80465 -5.48625,2.4871 -2.70655,1.9019 -3.9501,4.5353 -1.24355,2.6334 -1.24355,6.1446 0,6.8761 4.90105,10.02155 4.389,2.7797 7.1687,3.6575 l 0,-0.0731 q 3.43805,1.24355 5.4131,2.0482 2.0482,0.80465 2.0482,1.7556 0,0.5852 -0.80465,0.8778 -0.80465,0.21945 -2.1945,0.21945 -4.31585,0 -8.41225,-1.6093 -2.1945,-0.80465 -3.58435,-1.3167 -1.38985,-0.5852 -2.0482,-0.8778 -1.24355,-0.5852 -2.1945,0.1463 -0.8778,0.7315 -0.7315,2.0482 l 0.95095,8.99745 q 0.0731,0.5852 0.51205,1.09725 0.4389,0.51205 0.95095,0.65835 3.29175,1.09725 7.1687,1.68245 3.9501,0.65835 8.41225,0.65835 8.1928,0 12.80125,-3.5112 4.60845,-3.5112 4.60845,-10.0947 z"
         style=""
         id="path4224" />
    </g>
  </g>
</svg>
