<?xml version="1.0" encoding="UTF-8" standalone="no"?>
<!-- Created with Inkscape (http://www.inkscape.org/) -->

<svg
   xmlns:dc="http://purl.org/dc/elements/1.1/"
   xmlns:cc="http://creativecommons.org/ns#"
   xmlns:rdf="http://www.w3.org/1999/02/22-rdf-syntax-ns#"
   xmlns:svg="http://www.w3.org/2000/svg"
   xmlns="http://www.w3.org/2000/svg"
   xmlns:sodipodi="http://sodipodi.sourceforge.net/DTD/sodipodi-0.dtd"
   xmlns:inkscape="http://www.inkscape.org/namespaces/inkscape"
   width="82.293198mm"
   height="19.383999mm"
   viewBox="0 0 291.59007 68.68346"
   id="svg4367"
   version="1.1"
   inkscape:version="0.91 r13725"
   sodipodi:docname="getBusLogoMaster.svg">
  <defs
     id="defs4369">
    <filter
       inkscape:collect="always"
       style="color-interpolation-filters:sRGB"
       id="filter4172"
       x="-0.014523901"
       width="1.0290478"
       y="-0.069054544"
       height="1.1381091">
      <feGaussianBlur
         inkscape:collect="always"
         stdDeviation="1.7363981"
         id="feGaussianBlur4174" />
    </filter>
  </defs>
  <sodipodi:namedview
     id="base"
     pagecolor="#ffffff"
     bordercolor="#666666"
     borderopacity="0"
     inkscape:pageopacity="0.0"
     inkscape:pageshadow="2"
     inkscape:zoom="4.0570655"
     inkscape:cx="145.79504"
     inkscape:cy="34.34173"
     inkscape:document-units="px"
     inkscape:current-layer="layer1"
     showgrid="false"
     fit-margin-top="0"
     fit-margin-left="0"
     fit-margin-right="0"
     fit-margin-bottom="0"
     inkscape:window-width="1317"
     inkscape:window-height="744"
     inkscape:window-x="49"
     inkscape:window-y="24"
     inkscape:window-maximized="1" />
  <metadata
     id="metadata4372">
    <rdf:RDF>
      <cc:Work
         rdf:about="">
        <dc:format>image/svg+xml</dc:format>
        <dc:type
           rdf:resource="http://purl.org/dc/dcmitype/StillImage" />
        <dc:title />
      </cc:Work>
    </rdf:RDF>
  </metadata>
  <g
     inkscape:label="Layer 1"
     inkscape:groupmode="layer"
     id="layer1"
     transform="translate(-171.34778,-238.02049)">
    <g
       transform="translate(-47.192057,-384.88754)"
       id="g4338">
      <g
         transform="translate(140.02258,502.87978)"
         style="font-style:normal;font-variant:normal;font-weight:500;font-stretch:normal;font-size:73.15000153px;line-height:125%;font-family:BorisBlackBloxx;-inkscape-font-specification:'BorisBlackBloxx, Medium';text-align:start;letter-spacing:0px;word-spacing:0px;writing-mode:lr-tb;text-anchor:start;fill:#666666;fill-opacity:1;stroke:none;stroke-width:1px;stroke-linecap:butt;stroke-linejoin:miter;stroke-opacity:1;filter:url(#filter4172)"
         id="flowRoot4136">
        <path
           d="m 124.5634,175.50354 0,-14.32283 -11.78686,0 0,-5.92915 18.93042,0 0,22.89509 q -4.17898,2.96458 -9.21519,4.50044 -5.0362,1.50015 -10.75105,1.50015 -12.501218,0 -19.573337,-7.28643 -7.036401,-7.32214 -7.036401,-20.35913 0,-13.07271 7.036401,-20.35913 7.072119,-7.32215 19.573337,-7.32215 5.2148,0 9.89383,1.28584 4.71474,1.28584 8.67942,3.78609 l 0,7.67932 q -4.00039,-3.39319 -8.50083,-5.10764 -4.50044,-1.71445 -9.46521,-1.71445 -9.78667,0 -14.715728,5.46481 -4.893335,5.46482 -4.893335,16.28731 0,10.78677 4.893335,16.25159 4.929058,5.46482 14.715728,5.46482 3.8218,0 6.82209,-0.64292 3.00029,-0.67864 5.39338,-2.07163 z"
           style=""
           id="path3461" />
        <path
           d="m 178.85442,161.46645 0,3.2146 -30.21724,0 q 0.42862,6.78638 4.07183,10.35815 3.67893,3.53606 10.21528,3.53606 3.78609,0 7.32215,-0.92866 3.57178,-0.92866 7.07212,-2.78598 l 0,6.21489 q -3.53606,1.50014 -7.25071,2.28594 -3.71465,0.78579 -7.53645,0.78579 -9.57236,0 -15.18006,-5.57198 -5.57197,-5.57197 -5.57197,-15.0729 0,-9.82238 5.28623,-15.57295 5.32195,-5.78628 14.32283,-5.78628 8.07222,0 12.75125,5.2148 4.71474,5.17908 4.71474,14.10852 z m -6.57207,-1.92876 q -0.0714,-5.39338 -3.03601,-8.60798 -2.92886,-3.2146 -7.78647,-3.2146 -5.50054,0 -8.82229,3.10744 -3.28604,3.10745 -3.78609,8.75086 l 23.43086,-0.0357 z"
           style=""
           id="path3463" />
        <path
           d="m 196.14182,131.74926 0,11.35825 13.53704,0 0,5.10765 -13.53704,0 0,21.7164 q 0,4.89334 1.32156,6.28633 1.35728,1.39299 5.46482,1.39299 l 6.75066,0 0,5.50054 -6.75066,0 q -7.60789,0 -10.50103,-2.8217 -2.89314,-2.85742 -2.89314,-10.35816 l 0,-21.7164 -4.82189,0 0,-5.10765 4.82189,0 0,-11.35825 6.60779,0 z"
           style=""
           id="path3465" />
        <path
           d="m 225.85902,157.64465 0,19.53762 11.57255,0 q 5.822,0 8.60799,-2.39309 2.8217,-2.42881 2.8217,-7.39358 0,-5.00049 -2.8217,-7.35786 -2.78599,-2.39309 -8.60799,-2.39309 l -11.57255,0 z m 0,-21.93071 0,16.07299 10.67961,0 q 5.28623,0 7.85791,-1.96447 2.6074,-2.0002 2.6074,-6.07203 0,-4.0361 -2.6074,-6.0363 -2.57168,-2.00019 -7.85791,-2.00019 l -10.67961,0 z m -7.215,-5.92916 18.43038,0 q 8.2508,0 12.71552,3.42891 4.46473,3.42891 4.46473,9.75095 0,4.89334 -2.28594,7.78648 -2.28594,2.89314 -6.71494,3.60749 5.32194,1.14297 8.2508,4.78618 2.96458,3.6075 2.96458,9.0366 0,7.14356 -4.85762,11.03679 -4.85762,3.89324 -13.82278,3.89324 l -19.14473,0 0,-53.32664 z"
           style=""
           id="path3467" />
        <path
           d="m 267.8274,167.32417 0,-24.21666 6.57207,0 0,23.96663 q 0,5.67913 2.2145,8.53655 2.2145,2.8217 6.6435,2.8217 5.32195,0 8.39368,-3.39319 3.10745,-3.39318 3.10745,-9.2509 l 0,-22.68079 6.57207,0 0,40.00391 -6.57207,0 0,-6.14346 q -2.39309,3.64322 -5.57198,5.42911 -3.14316,1.75017 -7.32214,1.75017 -6.89353,0 -10.46531,-4.28614 -3.57177,-4.28613 -3.57177,-12.53693 z m 16.53733,-25.18104 0,0 z"
           style=""
           id="path3469" />
        <path
           d="m 340.44163,144.2862 0,6.21489 q -2.78599,-1.42871 -5.78628,-2.14306 -3.00029,-0.71436 -6.21489,-0.71436 -4.89334,0 -7.35786,1.50015 -2.42881,1.50014 -2.42881,4.50044 0,2.28594 1.75017,3.60749 1.75017,1.28584 7.0364,2.46453 l 2.25022,0.50005 q 7.00068,1.50014 9.92954,4.25041 2.96458,2.71455 2.96458,7.60789 0,5.57197 -4.42901,8.82229 -4.39328,3.25032 -12.10832,3.25032 -3.2146,0 -6.71494,-0.64292 -3.46463,-0.60721 -7.32215,-1.85733 l 0,-6.78637 q 3.64321,1.89304 7.17927,2.85742 3.53606,0.92866 7.00069,0.92866 4.64331,0 7.14355,-1.57158 2.50025,-1.6073 2.50025,-4.50044 0,-2.67884 -1.82161,-4.10755 -1.78589,-1.42871 -7.89363,-2.75026 l -2.28594,-0.53577 q -6.10773,-1.28584 -8.82229,-3.92896 -2.71455,-2.67883 -2.71455,-7.32214 0,-5.64341 4.00039,-8.71514 4.0004,-3.07173 11.35826,-3.07173 3.64321,0 6.85781,0.53577 3.2146,0.53577 5.92915,1.6073 z"
           style=""
           id="path3471" />
      </g>
      <g
         transform="translate(138.17386,505.88959)"
         style="font-style:normal;font-variant:normal;font-weight:500;font-stretch:normal;font-size:73.15000153px;line-height:125%;font-family:BorisBlackBloxx;-inkscape-font-specification:'BorisBlackBloxx, Medium';text-align:start;letter-spacing:0px;word-spacing:0px;writing-mode:lr-tb;text-anchor:start;opacity:1;fill:#2765c2;fill-opacity:1;stroke:#b3b3b3;stroke-width:1px;stroke-linecap:butt;stroke-linejoin:miter;stroke-opacity:1"
         id="flowRoot4160">
        <path
           d="m 124.5634,175.50354 0,-14.32283 -11.78686,0 0,-5.92915 18.93042,0 0,22.89509 q -4.17898,2.96458 -9.21519,4.50044 -5.0362,1.50015 -10.75105,1.50015 -12.501218,0 -19.573337,-7.28643 -7.036401,-7.32214 -7.036401,-20.35913 0,-13.07271 7.036401,-20.35913 7.072119,-7.32215 19.573337,-7.32215 5.2148,0 9.89383,1.28584 4.71474,1.28584 8.67942,3.78609 l 0,7.67932 q -4.00039,-3.39319 -8.50083,-5.10764 -4.50044,-1.71445 -9.46521,-1.71445 -9.78667,0 -14.715728,5.46481 -4.893335,5.46482 -4.893335,16.28731 0,10.78677 4.893335,16.25159 4.929058,5.46482 14.715728,5.46482 3.8218,0 6.82209,-0.64292 3.00029,-0.67864 5.39338,-2.07163 z"
           style=""
           id="path3474" />
        <path
           d="m 178.85442,161.46645 0,3.2146 -30.21724,0 q 0.42862,6.78638 4.07183,10.35815 3.67893,3.53606 10.21528,3.53606 3.78609,0 7.32215,-0.92866 3.57178,-0.92866 7.07212,-2.78598 l 0,6.21489 q -3.53606,1.50014 -7.25071,2.28594 -3.71465,0.78579 -7.53645,0.78579 -9.57236,0 -15.18006,-5.57198 -5.57197,-5.57197 -5.57197,-15.0729 0,-9.82238 5.28623,-15.57295 5.32195,-5.78628 14.32283,-5.78628 8.07222,0 12.75125,5.2148 4.71474,5.17908 4.71474,14.10852 z m -6.57207,-1.92876 q -0.0714,-5.39338 -3.03601,-8.60798 -2.92886,-3.2146 -7.78647,-3.2146 -5.50054,0 -8.82229,3.10744 -3.28604,3.10745 -3.78609,8.75086 l 23.43086,-0.0357 z"
           style=""
           id="path3476" />
        <path
           d="m 196.14182,131.74926 0,11.35825 13.53704,0 0,5.10765 -13.53704,0 0,21.7164 q 0,4.89334 1.32156,6.28633 1.35728,1.39299 5.46482,1.39299 l 6.75066,0 0,5.50054 -6.75066,0 q -7.60789,0 -10.50103,-2.8217 -2.89314,-2.85742 -2.89314,-10.35816 l 0,-21.7164 -4.82189,0 0,-5.10765 4.82189,0 0,-11.35825 6.60779,0 z"
           style=""
           id="path3478" />
        <path
           d="m 225.85902,157.64465 0,19.53762 11.57255,0 q 5.822,0 8.60799,-2.39309 2.8217,-2.42881 2.8217,-7.39358 0,-5.00049 -2.8217,-7.35786 -2.78599,-2.39309 -8.60799,-2.39309 l -11.57255,0 z m 0,-21.93071 0,16.07299 10.67961,0 q 5.28623,0 7.85791,-1.96447 2.6074,-2.0002 2.6074,-6.07203 0,-4.0361 -2.6074,-6.0363 -2.57168,-2.00019 -7.85791,-2.00019 l -10.67961,0 z m -7.215,-5.92916 18.43038,0 q 8.2508,0 12.71552,3.42891 4.46473,3.42891 4.46473,9.75095 0,4.89334 -2.28594,7.78648 -2.28594,2.89314 -6.71494,3.60749 5.32194,1.14297 8.2508,4.78618 2.96458,3.6075 2.96458,9.0366 0,7.14356 -4.85762,11.03679 -4.85762,3.89324 -13.82278,3.89324 l -19.14473,0 0,-53.32664 z"
           style=""
           id="path3480" />
        <path
           d="m 267.8274,167.32417 0,-24.21666 6.57207,0 0,23.96663 q 0,5.67913 2.2145,8.53655 2.2145,2.8217 6.6435,2.8217 5.32195,0 8.39368,-3.39319 3.10745,-3.39318 3.10745,-9.2509 l 0,-22.68079 6.57207,0 0,40.00391 -6.57207,0 0,-6.14346 q -2.39309,3.64322 -5.57198,5.42911 -3.14316,1.75017 -7.32214,1.75017 -6.89353,0 -10.46531,-4.28614 -3.57177,-4.28613 -3.57177,-12.53693 z m 16.53733,-25.18104 0,0 z"
           style=""
           id="path3482" />
        <path
           d="m 340.44163,144.2862 0,6.21489 q -2.78599,-1.42871 -5.78628,-2.14306 -3.00029,-0.71436 -6.21489,-0.71436 -4.89334,0 -7.35786,1.50015 -2.42881,1.50014 -2.42881,4.50044 0,2.28594 1.75017,3.60749 1.75017,1.28584 7.0364,2.46453 l 2.25022,0.50005 q 7.00068,1.50014 9.92954,4.25041 2.96458,2.71455 2.96458,7.60789 0,5.57197 -4.42901,8.82229 -4.39328,3.25032 -12.10832,3.25032 -3.2146,0 -6.71494,-0.64292 -3.46463,-0.60721 -7.32215,-1.85733 l 0,-6.78637 q 3.64321,1.89304 7.17927,2.85742 3.53606,0.92866 7.00069,0.92866 4.64331,0 7.14355,-1.57158 2.50025,-1.6073 2.50025,-4.50044 0,-2.67884 -1.82161,-4.10755 -1.78589,-1.42871 -7.89363,-2.75026 l -2.28594,-0.53577 q -6.10773,-1.28584 -8.82229,-3.92896 -2.71455,-2.67883 -2.71455,-7.32214 0,-5.64341 4.00039,-8.71514 4.0004,-3.07173 11.35826,-3.07173 3.64321,0 6.85781,0.53577 3.2146,0.53577 5.92915,1.6073 z"
           style=""
           id="path3484" />
      </g>
    </g>
  </g>
</svg>
